<svg xmlns="http://www.w3.org/2000/svg" xmlns:xlink="http://www.w3.org/1999/xlink" width="329" height="81.252" viewBox="0 0 329 81.252">
  <defs>
    <clipPath id="clip-path">
      <rect id="Rectangle_38" data-name="Rectangle 38" width="329" height="81.252" fill="none"/>
    </clipPath>
  </defs>
  <g id="Group_26" data-name="Group 26" transform="translate(-314.949 -806.779)">
    <g id="Group_25" data-name="Group 25" transform="translate(314.949 806.779)">
      <g id="Group_24" data-name="Group 24" clip-path="url(#clip-path)">
        <path id="Path_4" data-name="Path 4" d="M320.892,53.488H310.733L310.75,72.5c0,5.554-2.382,10.049-7.937,10.049s-7.961-4.494-7.961-10.049V53.506H284.719l0,18.991c0,10.977,7.057,19.873,18.035,19.873s18.138-8.9,18.138-19.873Z" transform="translate(-120.409 -22.621)" fill="#00a7e1"/>
        <rect id="Rectangle_37" data-name="Rectangle 37" width="10.109" height="49.485" transform="translate(292.09 19.285)" fill="#00a7e1"/>
        <path id="Path_5" data-name="Path 5" d="M536.595,35.277V33.5h7.878v1.778h-2.882v7.836h-2.113V35.277Z" transform="translate(-226.932 -14.167)" fill="#00a7e1"/>
        <path id="Path_6" data-name="Path 6" d="M555.134,33.5l2.249,6.61h.027l2.126-6.61h2.978v9.613h-1.979V36.3h-.028l-2.356,6.813h-1.63l-2.356-6.746h-.028v6.746H552.16V33.5Z" transform="translate(-233.514 -14.167)" fill="#00a7e1"/>
        <path id="Path_7" data-name="Path 7" d="M251.761,52.55c-8.714-2.011-14.211,6.646-14.441,7.11-.111.228-.116.361-.5.351-.319-.007-.355-.351-.355-.351l-1.081-6.623h-9.057V90.833h10.152V70.375c0-1.671,4.5-9.686,13.223-7.624,4.411,1.045,6.283,2.916,6.283,2.916V54.153a16.212,16.212,0,0,0-4.223-1.6" transform="translate(-95.716 -22.096)" fill="#00a7e1"/>
        <path id="Path_8" data-name="Path 8" d="M373.654,62.122a10.129,10.129,0,1,1-10.127,10.131v0a10.13,10.13,0,0,1,10.127-10.127m-9.84,41.155v-13.6l0,0,0-5.093s.015-.407.383-.411c.327,0,.4.212.481.411a12.039,12.039,0,0,0,14.4,6.924,20.011,20.011,0,1,0-25.444-19.262v31.027Z" transform="translate(-149.556 -22.091)" fill="#00a7e1"/>
        <path id="Path_9" data-name="Path 9" d="M459.814,72.253a10.129,10.129,0,1,1-10.131-10.127h0a10.13,10.13,0,0,1,10.128,10.127m-.289,18.6H469.7v-18.6a20.01,20.01,0,1,0-25.444,19.26,12.039,12.039,0,0,0,14.4-6.922c.08-.2.152-.416.481-.413.368.006.383.413.383.413" transform="translate(-181.718 -22.095)" fill="#00a7e1"/>
        <path id="Path_10" data-name="Path 10" d="M165.517,41.947h-4.081V74.219l4.191.108c8.6,0,14.133-.782,14.133-16.24,0-14.823-4.887-16.139-14.244-16.139m-2.756,40.845H151.213V33.382H163.6c15,0,26.382,2.753,26.382,24.7,0,21.741-12.053,24.706-27.224,24.706" transform="translate(-63.95 -14.118)" fill="#00a7e1"/>
        <path id="Path_11" data-name="Path 11" d="M43.888,17.306C38.171,11.591,32.716,6.144,31.092,0c-1.623,6.144-7.079,11.591-12.8,17.306C9.722,25.876,0,35.587,0,50.154a31.093,31.093,0,1,0,62.187.01v-.01c0-14.565-9.721-24.278-18.3-32.847M13.215,57.4c-1.906-.065-8.943-12.192,4.111-25.106l8.638,9.435a.738.738,0,0,1,.006,1.045c-.02.02-.042.039-.064.058C23.845,44.945,15.06,53.755,13.968,56.8c-.226.628-.555.6-.753.6M31.094,73.383A10.694,10.694,0,0,1,20.4,62.69h0a11.14,11.14,0,0,1,2.666-7.063c1.928-2.358,8.027-8.99,8.027-8.99S37.1,53.365,39.1,55.6a10.458,10.458,0,0,1,2.682,7.086A10.693,10.693,0,0,1,31.094,73.383M51.561,56.042c-.23.5-.753,1.346-1.459,1.371-1.258.046-1.393-.6-2.322-1.975C45.739,52.418,27.926,33.8,24.594,30.2c-2.931-3.167-.413-5.4.755-6.57,1.465-1.468,5.743-5.743,5.743-5.743s12.754,12.1,18.066,20.369,3.482,15.423,2.4,17.784" transform="translate(0)" fill="#00a7e1"/>
      </g>
    </g>
  </g>
</svg>
