<svg id="Component_4_1" data-name="Component 4 – 1" xmlns="http://www.w3.org/2000/svg" width="289.834" height="97.711" viewBox="0 0 289.834 97.711">
  <path id="Path_1" data-name="Path 1" d="M748.338,155.673H601.2v-3.9H752.338Z" transform="translate(-462.504 -57.962)" fill="#a08056"/>
  <path id="dx" d="M512.224,152.243l-.788-10.9c-3.545,7.485-10.373,12.737-20.747,12.737-18.777,0-24.161-16.413-24.161-30.989,0-19.171,8.8-32.959,26.394-32.959,7.878,0,14.05,3.283,17.727,8.141V66.366h-10.5v-8.4h21.009v85.877h9.324v8.4Zm-19.3-6.828c12.08,0,17.727-11.687,17.727-24.949,0-8.273-2.233-21.666-16.808-21.666-11.293,0-16.02,8.4-16.02,23.636C477.821,131.89,479.659,145.415,492.922,145.415Zm45.433,6.828v-8.4h6.7l14.182-21.666-14.182-21.8h-6.434v-8.4h13.656l13.656,21.273,13.788-21.273h12.475v8.4h-6.829l-14.05,21.141,14.444,22.323h6.829v8.4H578.668l-14.182-21.8-13.262,21.4v.394Z" transform="translate(-466.528 -57.962)" fill="#a08056" fill-rule="evenodd"/>
  <text id="digital" transform="translate(134.184 22.059)" fill="#424242" font-size="50.896" font-family="QuestaSlab-Regular, Questa Slab"><tspan x="0" y="50">digital</tspan></text>
</svg>
