<svg xmlns="http://www.w3.org/2000/svg" width="77.157" height="77.157" viewBox="0 0 77.157 77.157">
  <g id="Group_17" data-name="Group 17" transform="translate(1 1)">
    <path id="dx" d="M582.226,652.083l-.279-3.848a7.647,7.647,0,0,1-7.324,4.5c-6.63,0-8.531-5.795-8.531-10.941,0-6.769,3.106-11.637,9.319-11.637a7.635,7.635,0,0,1,6.258,2.875V621.763H577.96V618.8h7.418v30.32h3.292v2.967Zm-6.815-2.411c4.265,0,6.258-4.126,6.258-8.809,0-2.92-.788-7.649-5.934-7.649-3.987,0-5.656,2.967-5.656,8.345C570.079,644.9,570.728,649.672,575.411,649.672Zm16.04,2.411v-2.967h2.365l5.006-7.65-5.006-7.7h-2.272V630.8h4.821l4.822,7.511,4.868-7.511h4.4v2.967h-2.411l-4.96,7.464,5.1,7.882H610.6v2.967h-4.914l-5.007-7.7-4.682,7.556v.14Z" transform="translate(-550.719 -600.594)" fill="#a08056" fill-rule="evenodd"/>
    <circle id="Ellipse_1" data-name="Ellipse 1" cx="37.578" cy="37.578" r="37.578" fill="none" stroke="#a08056" stroke-miterlimit="10" stroke-width="2"/>
  </g>
</svg>
